<?xml version="1.0" encoding="UTF-8"?>
<svg width="502px" height="502px" viewBox="0 0 502 502" version="1.1" xmlns="http://www.w3.org/2000/svg" xmlns:xlink="http://www.w3.org/1999/xlink">
    <!-- Generator: Sketch 49.3 (51167) - http://www.bohemiancoding.com/sketch -->
    <title>Anonym Logo</title>
    <desc>Created with Sketch.</desc>
    <defs></defs>
    <g id="Symbols" stroke="none" stroke-width="1" fill="none" fill-rule="evenodd">
        <g id="Anonym-Logo-Big" fill="#282D4F">
            <path d="M47.9481943,497.283985 L140.30591,366.109984 L299.328366,366.109984 L299.328366,501.903032 L344,502 L344,93 L282.557553,93 L13.4342652,470.528977 C4.96984824,458.496942 1.9384758e-15,443.828856 0,428 L0,74 C-5.00501776e-15,33.1309285 33.1309285,7.50752664e-15 74,0 L428,0 C468.869071,-7.50752664e-15 502,33.1309285 502,74 L502,428 C502,468.869071 468.869071,502 428,502 L74,502 C64.8309984,502 56.0514823,500.332414 47.9481943,497.283985 Z M306,139 L306,325 L167,325 L306,139 Z M413.5,474 C431.449254,474 446,459.449254 446,441.5 C446,423.550746 431.449254,409 413.5,409 C395.550746,409 381,423.550746 381,441.5 C381,459.449254 395.550746,474 413.5,474 Z" id="Anonym-Logo"></path>
        </g>
    </g>
</svg>